<svg width="54" height="54" viewBox="0 0 54 54" fill="none" xmlns="http://www.w3.org/2000/svg">
<path d="M49.0286 45.0841C51.9397 43.1097 53.745 40.3656 53.745 37.3308C53.745 31.3184 46.6613 26.4442 37.9224 26.4442C29.1835 26.4442 22.0995 31.3183 22.0995 37.3308C22.0995 43.3433 29.1838 48.2174 37.9224 48.2174C40.0502 48.2174 42.0795 47.9277 43.9328 47.4036L51.9299 53.3732L49.0286 45.0842V45.0841ZM42.5058 12.5186C42.5058 5.60488 32.9906 0 21.2529 0C9.51526 0 0 5.60453 0 12.5186C0 15.7714 2.10627 18.734 5.55877 20.96L2.20932 34.6233L13.7275 24.2292C16.0669 24.7511 18.6029 25.0377 21.2529 25.0377C32.9905 25.0377 42.5058 19.4329 42.5058 12.5188V12.5186Z" fill="#8600CE"/>
</svg>
