<svg width="54" height="48" viewBox="0 0 54 48" fill="none" xmlns="http://www.w3.org/2000/svg">
<path d="M8.9575 11.9433C10.1386 11.9433 11.2931 11.5931 12.2752 10.9369C13.2572 10.2808 14.0226 9.34811 14.4746 8.25693C14.9266 7.16575 15.0448 5.96505 14.8144 4.80666C14.584 3.64827 14.0153 2.58422 13.1801 1.74906C12.345 0.913911 11.2809 0.345165 10.1225 0.114747C8.96413 -0.115672 7.76342 0.00258741 6.67224 0.454569C5.58106 0.90655 4.64842 1.67195 3.99224 2.65399C3.33607 3.63603 2.98583 4.79059 2.98583 5.97167C2.98583 7.55546 3.61499 9.07437 4.73489 10.1943C5.8548 11.3142 7.37372 11.9433 8.9575 11.9433ZM8.9575 28.3729C8.95617 27.8149 9.06831 27.2625 9.2871 26.7492C9.50589 26.2359 9.82676 25.7725 10.2302 25.3871L16.9605 19.0347C17.1144 18.8901 17.3122 18.8192 17.4839 18.7016C17.0448 17.59 16.2818 16.6359 15.2938 15.9632C14.3059 15.2906 13.1386 14.9303 11.9433 14.9292H5.97167C4.38788 14.9292 2.86897 15.5583 1.74906 16.6782C0.629156 17.7981 0 19.3171 0 20.9008L0 29.8583C0 30.6502 0.314578 31.4097 0.874531 31.9696C1.43448 32.5296 2.19394 32.8442 2.98583 32.8442V44.7875C2.98583 45.5794 3.30041 46.3389 3.86036 46.8988C4.42032 47.4588 5.17978 47.7733 5.97167 47.7733H11.9433C12.7352 47.7733 13.4947 47.4588 14.0546 46.8988C14.6146 46.3389 14.9292 45.5794 14.9292 44.7875V35.7936L10.2302 31.3587C9.82663 30.9734 9.50567 30.51 9.28687 29.9967C9.06807 29.4834 8.95601 28.9309 8.9575 28.3729ZM44.7875 11.9433C45.9686 11.9433 47.1232 11.5931 48.1052 10.9369C49.0872 10.2808 49.8526 9.34811 50.3046 8.25693C50.7566 7.16575 50.8749 5.96505 50.6444 4.80666C50.414 3.64827 49.8453 2.58422 49.0101 1.74906C48.175 0.913911 47.1109 0.345165 45.9525 0.114747C44.7941 -0.115672 43.5934 0.00258741 42.5023 0.454569C41.4111 0.90655 40.4784 1.67195 39.8222 2.65399C39.1661 3.63603 38.8158 4.79059 38.8158 5.97167C38.8158 7.55546 39.445 9.07437 40.5649 10.1943C41.6848 11.3142 43.2037 11.9433 44.7875 11.9433ZM47.7733 14.9292H41.8017C40.6066 14.9302 39.4393 15.2904 38.4514 15.9629C37.4634 16.6354 36.7003 17.5892 36.2611 18.7007C36.4328 18.8192 36.6343 18.8873 36.7855 19.0356L43.5148 25.3861C43.917 25.7725 44.2371 26.2361 44.4557 26.7492C44.6743 27.2623 44.787 27.8142 44.787 28.372C44.787 28.9297 44.6743 29.4816 44.4557 29.9947C44.2371 30.5078 43.917 30.9715 43.5148 31.3578L38.8158 35.7946V44.7875C38.8158 45.5794 39.1304 46.3389 39.6904 46.8988C40.2503 47.4588 41.0098 47.7733 41.8017 47.7733H47.7733C48.5652 47.7733 49.3247 47.4588 49.8846 46.8988C50.4446 46.3389 50.7592 45.5794 50.7592 44.7875V32.8442C51.5511 32.8442 52.3105 32.5296 52.8705 31.9696C53.4304 31.4097 53.745 30.6502 53.745 29.8583V20.9008C53.745 19.3171 53.1159 17.7981 51.9959 16.6782C50.876 15.5583 49.3571 14.9292 47.7733 14.9292ZM41.4658 27.5574L34.7364 21.2069C34.5776 21.0555 34.3778 20.9541 34.1618 20.9153C33.9458 20.8765 33.7232 20.902 33.5216 20.9887C33.32 21.0754 33.1483 21.2194 33.0278 21.4028C32.9074 21.5863 32.8435 21.8011 32.8442 22.0205V25.3796H20.9008V22.0205C20.9016 21.801 20.8379 21.5861 20.7175 21.4025C20.5972 21.2189 20.4255 21.0747 20.2239 20.9879C20.0222 20.9011 19.7995 20.8755 19.5835 20.9143C19.3674 20.9531 19.1675 21.0545 19.0086 21.206L12.2792 27.5574C12.0641 27.7741 11.9434 28.0671 11.9434 28.3724C11.9434 28.6778 12.0641 28.9707 12.2792 29.1875L19.0086 35.5389C19.1675 35.6904 19.3675 35.7919 19.5837 35.8306C19.7998 35.8693 20.0226 35.8436 20.2243 35.7567C20.426 35.6698 20.5976 35.5255 20.7179 35.3418C20.8382 35.158 20.9018 34.943 20.9008 34.7234V31.3513H32.8442V34.7234C32.8432 34.943 32.9068 35.158 33.0271 35.3418C33.1474 35.5255 33.319 35.6698 33.5207 35.7567C33.7224 35.8436 33.9452 35.8693 34.1613 35.8306C34.3775 35.7919 34.5775 35.6904 34.7364 35.5389L41.4658 29.1875C41.6809 28.9707 41.8016 28.6778 41.8016 28.3724C41.8016 28.0671 41.6809 27.7741 41.4658 27.5574Z" fill="#8600CE"/>
</svg>
