<svg width="55" height="55" viewBox="0 0 55 55" fill="none" xmlns="http://www.w3.org/2000/svg">
<path d="M44.1148 37.5399C42.9286 37.5457 41.7668 37.8768 40.7557 38.4972L35.566 33.2906C36.7736 31.5872 37.4222 29.5507 37.4222 27.4627C37.4222 25.3746 36.7736 23.3381 35.566 21.6347L40.7557 16.4281C41.7668 17.0485 42.9286 17.3797 44.1148 17.3855C45.4435 17.3855 46.7424 16.9915 47.8472 16.2533C48.952 15.5151 49.8131 14.4658 50.3215 13.2383C50.83 12.0107 50.9631 10.6599 50.7038 9.35671C50.4446 8.05352 49.8048 6.85646 48.8652 5.91692C47.9257 4.97737 46.7286 4.33753 45.4254 4.07831C44.1222 3.81909 42.7715 3.95213 41.5439 4.46061C40.3163 4.96909 39.2671 5.83017 38.5289 6.93496C37.7907 8.03975 37.3967 9.33863 37.3967 10.6673C37.4025 11.8535 37.7336 13.0154 38.354 14.0264L33.1475 19.2162C31.444 18.0086 29.4075 17.36 27.3195 17.36C25.2314 17.36 23.1949 18.0086 21.4915 19.2162L16.285 14.0264C16.9054 13.0154 17.2365 11.8535 17.2423 10.6673C17.2423 9.33863 16.8483 8.03975 16.1101 6.93496C15.3719 5.83017 14.3227 4.96909 13.0951 4.46061C11.8675 3.95213 10.5167 3.81909 9.21352 4.07831C7.91033 4.33753 6.71327 4.97737 5.77373 5.91692C4.83418 6.85646 4.19434 8.05352 3.93512 9.35671C3.6759 10.6599 3.80894 12.0107 4.31742 13.2383C4.8259 14.4658 5.68698 15.5151 6.79177 16.2533C7.89656 16.9915 9.19544 17.3855 10.5242 17.3855C11.7103 17.3797 12.8722 17.0485 13.8832 16.4281L19.073 21.6347C17.8654 23.3381 17.2168 25.3746 17.2168 27.4627C17.2168 29.5507 17.8654 31.5872 19.073 33.2906L13.8832 38.4972C12.8722 37.8768 11.7103 37.5457 10.5242 37.5399C9.19544 37.5399 7.89656 37.9339 6.79177 38.6721C5.68698 39.4103 4.8259 40.4595 4.31742 41.6871C3.80894 42.9146 3.6759 44.2654 3.93512 45.5686C4.19434 46.8718 4.83418 48.0689 5.77373 49.0084C6.71327 49.948 7.91033 50.5878 9.21352 50.847C10.5167 51.1062 11.8675 50.9732 13.0951 50.4647C14.3227 49.9562 15.3719 49.0952 16.1101 47.9904C16.8483 46.8856 17.2423 45.5867 17.2423 44.258C17.2365 43.0718 16.9054 41.9099 16.285 40.8989L21.4915 35.7092C23.1949 36.9168 25.2314 37.5654 27.3195 37.5654C29.4075 37.5654 31.444 36.9168 33.1475 35.7092L38.354 40.8989C37.7336 41.9099 37.4025 43.0718 37.3967 44.258C37.3967 45.5867 37.7907 46.8856 38.5289 47.9904C39.2671 49.0952 40.3163 49.9562 41.5439 50.4647C42.7715 50.9732 44.1222 51.1062 45.4254 50.847C46.7286 50.5878 47.9257 49.948 48.8652 49.0084C49.8048 48.0689 50.4446 46.8718 50.7038 45.5686C50.9631 44.2654 50.83 42.9146 50.3215 41.6871C49.8131 40.4595 48.952 39.4103 47.8472 38.6721C46.7424 37.9339 45.4435 37.5399 44.1148 37.5399ZM27.3195 34.1808C25.9908 34.1808 24.6919 33.7868 23.5871 33.0486C22.4823 32.3104 21.6212 31.2612 21.1127 30.0336C20.6043 28.806 20.4712 27.4552 20.7304 26.152C20.9897 24.8488 21.6295 23.6518 22.569 22.7122C23.5086 21.7727 24.7056 21.1328 26.0088 20.8736C27.312 20.6144 28.6628 20.7474 29.8904 21.2559C31.118 21.7644 32.1672 22.6255 32.9054 23.7303C33.6436 24.8351 34.0376 26.1339 34.0376 27.4627C34.0376 29.2444 33.3298 30.9532 32.0699 32.2131C30.81 33.473 29.1012 34.1808 27.3195 34.1808Z" fill="#8600CE"/>
</svg>
