<svg width="21" height="29" viewBox="0 0 21 29" fill="none" xmlns="http://www.w3.org/2000/svg">
<g id="&#240;&#159;&#166;&#134; icon &#34;ranking&#34;">
<g id="Group">
<path id="Vector" d="M12.0201 9.7447L13.8235 13.3515C14.0694 13.8433 14.7252 14.3352 15.2717 14.4171L18.537 14.9636C20.6273 15.3189 21.1191 16.8217 19.6163 18.3245L17.0751 20.8794C16.6516 21.3029 16.4057 22.1363 16.5423 22.7374L17.2664 25.8934C17.8402 28.3799 16.5149 29.3499 14.3153 28.052L11.255 26.235C10.6948 25.9071 9.79314 25.9071 9.23299 26.235L6.15895 28.0384C3.95934 29.3363 2.6341 28.3663 3.20791 25.8797L3.93201 22.7238C4.06863 22.1363 3.82271 21.3029 3.39919 20.8657L0.871677 18.3382C-0.631167 16.8354 -0.139327 15.3189 1.95099 14.9773L5.21626 14.4308C5.76275 14.3352 6.41853 13.857 6.66445 13.3652L8.46791 9.75836C9.43792 7.791 11.0501 7.791 12.0201 9.7447Z" fill="#8600CE"/>
<path id="Vector_2" d="M2.04664 11.9848C1.48649 11.9848 1.02197 11.5203 1.02197 10.9602V1.39661C1.02197 0.836463 1.48649 0.371948 2.04664 0.371948C2.60679 0.371948 3.0713 0.836463 3.0713 1.39661V10.9602C3.0713 11.5203 2.60679 11.9848 2.04664 11.9848Z" fill="#8600CE"/>
<path id="Vector_3" d="M18.4413 11.9848C17.8811 11.9848 17.4166 11.5203 17.4166 10.9602V1.39661C17.4166 0.836463 17.8811 0.371948 18.4413 0.371948C19.0014 0.371948 19.466 0.836463 19.466 1.39661V10.9602C19.466 11.5203 19.0014 11.9848 18.4413 11.9848Z" fill="#8600CE"/>
<path id="Vector_4" d="M10.244 5.15372C9.68388 5.15372 9.21936 4.68921 9.21936 4.12906V1.39661C9.21936 0.836463 9.68388 0.371948 10.244 0.371948C10.8042 0.371948 11.2687 0.836463 11.2687 1.39661V4.12906C11.2687 4.68921 10.8042 5.15372 10.244 5.15372Z" fill="#8600CE"/>
</g>
</g>
</svg>
